HIERARCHY
ROOT Hips
{
  OFFSET 0.392 -13.045 -297.002
  CHANNELS 6 Xposition Yposition Zposition Zrotation Xrotation Yrotation
  JOINT LeftUpLeg
  {
    OFFSET 5.837 -5.780 0.542
    CHANNELS 6 Xposition Yposition Zposition Zrotation Xrotation Yrotation
    JOINT LeftLeg
    {
      OFFSET -0.000 -46.410 0.000
      CHANNELS 6 Xposition Yposition Zposition Zrotation Xrotation Yrotation
      JOINT LeftFoot
      {
        OFFSET 0.000 -36.117 -0.000
        CHANNELS 6 Xposition Yposition Zposition Zrotation Xrotation Yrotation
        End Site
        {
          OFFSET 0.000 -7.168 4.139
        }
      }
    }
  }
  JOINT RightUpLeg
  {
    OFFSET -5.994 -6.293 2.001
    CHANNELS 6 Xposition Yposition Zposition Zrotation Xrotation Yrotation
    JOINT RightLeg
    {
      OFFSET -0.000 -46.600 0.000
      CHANNELS 6 Xposition Yposition Zposition Zrotation Xrotation Yrotation
      JOINT RightFoot
      {
        OFFSET 0.000 -35.471 -0.000
        CHANNELS 6 Xposition Yposition Zposition Zrotation Xrotation Yrotation
        End Site
        {
          OFFSET 0.000 -7.141 4.123
        }
      }
    }
  }
  JOINT Spine
  {
    OFFSET 0.000 6.104 -6.104
    CHANNELS 6 Xposition Yposition Zposition Zrotation Xrotation Yrotation
    JOINT LeftShoulder
    {
      OFFSET -0.000 34.359 0.000
      CHANNELS 6 Xposition Yposition Zposition Zrotation Xrotation Yrotation
      JOINT LeftArm
      {
        OFFSET 13.224 0.000 -0.000
        CHANNELS 6 Xposition Yposition Zposition Zrotation Xrotation Yrotation
        JOINT LeftForeArm
        {
          OFFSET 27.210 0.000 0.000
          CHANNELS 6 Xposition Yposition Zposition Zrotation Xrotation Yrotation
          JOINT LeftHand
          {
            OFFSET 27.054 0.000 -0.000
            CHANNELS 6 Xposition Yposition Zposition Zrotation Xrotation Yrotation
            JOINT LeftHandThumb1
            {
            OFFSET 4.970 -0.620 3.390
            CHANNELS 6 Xposition Yposition Zposition Zrotation Xrotation Yrotation
              JOINT LeftHandThumb2
              {
              OFFSET 2.150 -0.000 0.000
              CHANNELS 6 Xposition Yposition Zposition Zrotation Xrotation Yrotation
                JOINT LeftHandThumb3
                {
                OFFSET 2.200 -0.000 0.000
                CHANNELS 6 Xposition Yposition Zposition Zrotation Xrotation Yrotation
                  JOINT LeftHandThumb4
                  {
                  OFFSET 1.700 -0.000 0.000
                  CHANNELS 6 Xposition Yposition Zposition Zrotation Xrotation Yrotation
                  }
                }
              }
            }
            JOINT LeftHandIndex1
            {
            OFFSET 8.730 0.680 2.070
            CHANNELS 6 Xposition Yposition Zposition Zrotation Xrotation Yrotation
              JOINT LeftHandIndex2
              {
              OFFSET 2.670 -0.000 0.000
              CHANNELS 6 Xposition Yposition Zposition Zrotation Xrotation Yrotation
                JOINT LeftHandIndex3
                {
                OFFSET 2.130 -0.000 0.000
                CHANNELS 6 Xposition Yposition Zposition Zrotation Xrotation Yrotation
                  JOINT LeftHandIndex4
                  {
                  OFFSET 1.800 -0.000 0.000
                  CHANNELS 6 Xposition Yposition Zposition Zrotation Xrotation Yrotation
                  }
                }
              }
            }
            JOINT LeftHandMiddle1
            {
            OFFSET 9.220 0.670 0.550
            CHANNELS 6 Xposition Yposition Zposition Zrotation Xrotation Yrotation
              JOINT LeftHandMiddle2
              {
              OFFSET 2.660 -0.000 0.000
              CHANNELS 6 Xposition Yposition Zposition Zrotation Xrotation Yrotation
                JOINT LeftHandMiddle3
                {
                OFFSET 2.280 -0.000 0.000
                CHANNELS 6 Xposition Yposition Zposition Zrotation Xrotation Yrotation
                  JOINT LeftHandMiddle4
                  {
                  OFFSET 1.500 -0.000 0.000
                  CHANNELS 6 Xposition Yposition Zposition Zrotation Xrotation Yrotation
                  }
                }
              }
            }
            JOINT LeftHandRing1
            {
            OFFSET 9.250 0.670 -1.130
            CHANNELS 6 Xposition Yposition Zposition Zrotation Xrotation Yrotation
              JOINT LeftHandRing2
              {
              OFFSET 2.470 -0.000 0.000
              CHANNELS 6 Xposition Yposition Zposition Zrotation Xrotation Yrotation
                JOINT LeftHandRing3
                {
                OFFSET 2.210 -0.000 0.000
                CHANNELS 6 Xposition Yposition Zposition Zrotation Xrotation Yrotation
                  JOINT LeftHandRing4
                  {
                  OFFSET 1.800 -0.000 0.000
                  CHANNELS 6 Xposition Yposition Zposition Zrotation Xrotation Yrotation
                  }
                }
              }
            }
            JOINT LeftHandPinky1
            {
            OFFSET 9.350 0.660 -2.720
            CHANNELS 6 Xposition Yposition Zposition Zrotation Xrotation Yrotation
              JOINT LeftHandPinky2
              {
              OFFSET 1.630 -0.000 0.000
              CHANNELS 6 Xposition Yposition Zposition Zrotation Xrotation Yrotation
                JOINT LeftHandPinky3
                {
                OFFSET 1.710 -0.000 0.000
                CHANNELS 6 Xposition Yposition Zposition Zrotation Xrotation Yrotation
                  JOINT LeftHandPinky4
                  {
                  OFFSET 1.800 -0.000 0.000
                  CHANNELS 6 Xposition Yposition Zposition Zrotation Xrotation Yrotation
                  }
                }
              }
            }
          }
        }
      }
    }
    JOINT RightShoulder
    {
      OFFSET -0.000 34.359 0.000
      CHANNELS 6 Xposition Yposition Zposition Zrotation Xrotation Yrotation
      JOINT RightArm
      {
        OFFSET -19.172 0.000 -0.000
        CHANNELS 6 Xposition Yposition Zposition Zrotation Xrotation Yrotation
        JOINT RightForeArm
        {
          OFFSET -25.325 0.000 0.000
          CHANNELS 6 Xposition Yposition Zposition Zrotation Xrotation Yrotation
          JOINT RightHand
          {
            OFFSET -26.430 0.000 -0.000
            CHANNELS 6 Xposition Yposition Zposition Zrotation Xrotation Yrotation
            JOINT RightHandThumb1
            {
            OFFSET -4.970 -0.620 3.390
            CHANNELS 6 Xposition Yposition Zposition Zrotation Xrotation Yrotation
              JOINT RightHandThumb2
              {
              OFFSET -2.150 0.000 0.000
              CHANNELS 6 Xposition Yposition Zposition Zrotation Xrotation Yrotation
                JOINT RightHandThumb3
                {
                OFFSET -2.200 0.000 0.000
                CHANNELS 6 Xposition Yposition Zposition Zrotation Xrotation Yrotation
                  JOINT RightHandThumb4
                  {
                  OFFSET -1.700 0.000 0.000
                  CHANNELS 6 Xposition Yposition Zposition Zrotation Xrotation Yrotation
                  }
                }
              }
            }
            JOINT RightHandIndex1
            {
            OFFSET -8.730 0.680 2.070
            CHANNELS 6 Xposition Yposition Zposition Zrotation Xrotation Yrotation
              JOINT RightHandIndex2
              {
              OFFSET -2.670 0.000 0.000
              CHANNELS 6 Xposition Yposition Zposition Zrotation Xrotation Yrotation
                JOINT RightHandIndex3
                {
                OFFSET -2.130 0.000 0.000
                CHANNELS 6 Xposition Yposition Zposition Zrotation Xrotation Yrotation
                  JOINT RightHandIndex4
                  {
                  OFFSET -1.800 0.000 0.000
                  CHANNELS 6 Xposition Yposition Zposition Zrotation Xrotation Yrotation
                  }
                }
              }
            }
            JOINT RightHandMiddle1
            {
            OFFSET -9.220 0.670 0.550
            CHANNELS 6 Xposition Yposition Zposition Zrotation Xrotation Yrotation
              JOINT RightHandMiddle2
              {
              OFFSET -2.660 0.000 0.000
              CHANNELS 6 Xposition Yposition Zposition Zrotation Xrotation Yrotation
                JOINT RightHandMiddle3
                {
                OFFSET -2.280 0.000 0.000
                CHANNELS 6 Xposition Yposition Zposition Zrotation Xrotation Yrotation
                  JOINT RightHandMiddle4
                  {
                  OFFSET -1.500 0.000 0.000
                  CHANNELS 6 Xposition Yposition Zposition Zrotation Xrotation Yrotation
                  }
                }
              }
            }
            JOINT RightHandRing1
            {
            OFFSET -9.250 0.670 -1.130
            CHANNELS 6 Xposition Yposition Zposition Zrotation Xrotation Yrotation
              JOINT RightHandRing2
              {
              OFFSET -2.470 0.000 0.000
              CHANNELS 6 Xposition Yposition Zposition Zrotation Xrotation Yrotation
                JOINT RightHandRing3
                {
                OFFSET -2.210 0.000 0.000
                CHANNELS 6 Xposition Yposition Zposition Zrotation Xrotation Yrotation
                  JOINT RightHandRing4
                  {
                  OFFSET -1.800 0.000 0.000
                  CHANNELS 6 Xposition Yposition Zposition Zrotation Xrotation Yrotation
                  }
                }
              }
            }
            JOINT RightHandPinky1
            {
            OFFSET -9.350 0.660 -2.720
            CHANNELS 6 Xposition Yposition Zposition Zrotation Xrotation Yrotation
              JOINT RightHandPinky2
              {
              OFFSET -1.630 0.000 0.000
              CHANNELS 6 Xposition Yposition Zposition Zrotation Xrotation Yrotation
                JOINT RightHandPinky3
                {
                OFFSET -1.710 0.000 0.000
                CHANNELS 6 Xposition Yposition Zposition Zrotation Xrotation Yrotation
                  JOINT RightHandPinky4
                  {
                  OFFSET -1.800 0.000 0.000
                  CHANNELS 6 Xposition Yposition Zposition Zrotation Xrotation Yrotation
                  }
                }
              }
            }
          }
        }
      }
    }
    JOINT Neck
    {
      OFFSET -0.000 34.359 0.000
      CHANNELS 6 Xposition Yposition Zposition Zrotation Xrotation Yrotation
      JOINT Head
      {
        OFFSET -0.000 20.459 -0.000
        CHANNELS 6 Xposition Yposition Zposition Zrotation Xrotation Yrotation
        End Site
        {
          OFFSET -0.000 0.082 -0.000
        }
      }
    }
  }
}
MOTION
Frames:	6
Frame Time:	0.0333333
-0.171696 -18.2519 -297.321 2.43659 -1.47564 -9.65706 5.5859 -5.33477 0.393462 0.428275 -2.18723 9.13808 -3.53903e-06 -42.1829 2.38419e-05 -2.23911 -1.76909 -0.06916 1.11759e-06 -34.8868 2.38419e-05 -7.43406 -25.8526 -6.83568 -6.08945 -5.58083 2.27919 0.247072 -4.01371 9.08642 1.49012e-06 -43.5688 7.15256e-05 -0.697701 1.10425 0.0134462 1.49012e-06 -33.1694 -9.53674e-05 -11.1035 -2.84422 -6.50613 5.96046e-06 6.47806 -6.47805 -3.72677 -5.18815 6.31055 -5.96046e-06 34.359 2.38419e-05 -32.9711 1.17394e-05 -17.6261 12.8884 8.9407e-06 -2.38419e-05 -38.2495 14.0288 19.0883 27.7412 0 -4.76837e-05 5.09067e-06 6.83019e-06 -30.9458 25.47 0 -2.38419e-05 -5.87416 0.0249457 1.81635 0.0062 0.0497 0.0339 0 0 0 0 0.0215 0 0 0 0 0 0.022 0 0 0 0 0 0.017 0 0 0 0 -0.0068 0.0873 0.0207 0 0 0 0 0.0267 0 0 0 0 0 0.0213 0 0 0 0 0 0.018 0 0 0 0 -0.0067 0.0922 0.0055 0 0 0 0 0.0266 0 0 0 0 0 0.0228 0 0 0 0 0 0.015 0 0 0 0 -0.0067 0.0925 -0.0113 0 0 0 0 0.0247 0 0 0 0 0 0.0221 0 0 0 0 0 0.018 0 0 0 0 -0.0066 0.0935 -0.0272 0 0 0 0 0.0163 0 0 0 0 0 0.0171 0 0 0 0 0 0.018 0 0 0 0 -5.96046e-06 34.359 2.38419e-05 38.9549 -3.4151e-06 11.8033 -19.079 -1.19209e-05 -2.38419e-05 40.7716 7.70928 -22.701 -24.8796 5.96046e-06 -2.38419e-05 3.55744e-06 1.70755e-06 38.8271 -22.775 5.96046e-06 2.38419e-05 4.65422 -0.0241788 -4.36128 -0.0062 0.0497 0.0339 0 0 0 0 0.0215 0 0 0 0 0 0.022 0 0 0 0 0 0.017 0 0 0 0 0.0068 0.0873 0.0207 0 0 0 0 0.0267 0 0 0 0 0 0.0213 0 0 0 0 0 0.018 0 0 0 0 0.0067 0.0922 0.0055 0 0 0 0 0.0266 0 0 0 0 0 0.0228 0 0 0 0 0 0.015 0 0 0 0 0.0067 0.0925 -0.0113 0 0 0 0 0.0247 0 0 0 0 0 0.0221 0 0 0 0 0 0.018 0 0 0 0 0.0066 0.0935 -0.0272 0 0 0 0 0.0163 0 0 0 0 0 0.0171 0 0 0 0 0 0.018 0 0 0 0 -5.96046e-06 34.359 2.38419e-05 12.8478 4.67606 -1.06517 0 23.7141 -2.38419e-05 1.14926e-05 -1.06722e-05 0 
0.0684722 -17.9537 -297.213 2.3519 -2.07738 -9.42846 5.5867 -5.46763 0.425076 0.272897 -1.39796 8.57449 -4.37722e-06 -42.2551 2.38419e-05 -2.2546 -1.95189 -0.0768331 9.31323e-07 -34.9447 -2.38419e-05 -6.96757 -26.7846 -6.52228 -6.18301 -5.74055 2.20568 0.0935789 -3.34367 8.51786 -5.96046e-06 -43.6486 2.38419e-05 -0.593529 1.09122 0.0113029 0 -33.2489 7.15256e-05 -11.4882 -2.69663 -6.80215 2.98023e-06 6.39619 -6.3962 -3.69682 -4.6984 5.96642 -5.96046e-06 34.359 2.38419e-05 -31.8362 1.21663e-05 -16.7933 13.1809 0 4.76837e-05 -39.6668 13.1205 17.7846 27.6599 -2.38419e-05 -2.38419e-05 -3.99662e-06 -6.83019e-06 -30.3336 25.6304 2.38419e-05 0 -5.98641 0.0210519 1.95409 0.0062 0.0497 0.0339 0 0 0 0 0.0215 0 0 0 0 0 0.022 0 0 0 0 0 0.017 0 0 0 0 -0.0068 0.0873 0.0207 0 0 0 0 0.0267 0 0 0 0 0 0.0213 0 0 0 0 0 0.018 0 0 0 0 -0.0067 0.0922 0.0055 0 0 0 0 0.0266 0 0 0 0 0 0.0228 0 0 0 0 0 0.015 0 0 0 0 -0.0067 0.0925 -0.0113 0 0 0 0 0.0247 0 0 0 0 0 0.0221 0 0 0 0 0 0.018 0 0 0 0 -0.0066 0.0935 -0.0272 0 0 0 0 0.0163 0 0 0 0 0 0.0171 0 0 0 0 0 0.018 0 0 0 0 -5.96046e-06 34.359 2.38419e-05 38.202 -3.84198e-06 11.5121 -19.0815 5.96046e-06 0 41.628 7.33213 -21.7956 -25.2028 1.49012e-05 2.38419e-05 2.30408e-06 -8.53774e-07 38.2557 -22.749 2.98023e-06 0 4.14923 -0.0213338 -5.02531 -0.0062 0.0497 0.0339 0 0 0 0 0.0215 0 0 0 0 0 0.022 0 0 0 0 0 0.017 0 0 0 0 0.0068 0.0873 0.0207 0 0 0 0 0.0267 0 0 0 0 0 0.0213 0 0 0 0 0 0.018 0 0 0 0 0.0067 0.0922 0.0055 0 0 0 0 0.0266 0 0 0 0 0 0.0228 0 0 0 0 0 0.015 0 0 0 0 0.0067 0.0925 -0.0113 0 0 0 0 0.0247 0 0 0 0 0 0.0221 0 0 0 0 0 0.018 0 0 0 0 0.0066 0.0935 -0.0272 0 0 0 0 0.0163 0 0 0 0 0 0.0171 0 0 0 0 0 0.018 0 0 0 0 -5.96046e-06 34.359 2.38419e-05 13.2607 4.8152 -1.13329 -5.21541e-06 23.5312 -2.38419e-05 7.8107e-06 -1.06722e-05 4.26887e-07 
0.264005 -17.6431 -297.108 2.17434 -2.43038 -8.95309 5.61543 -5.57579 0.48511 0.225483 -0.879336 7.93772 1.04774e-06 -42.3547 0 -2.18012 -2.06807 -0.078711 8.3819e-07 -34.9518 0 -6.47683 -27.5748 -6.15702 -6.25607 -5.86106 2.14438 0.0830264 -2.87318 7.8829 1.49012e-06 -43.7791 -2.38419e-05 -0.500722 1.05772 0.00924399 -1.49012e-06 -33.3393 -4.76837e-05 -12.3808 -1.71279 -7.13373 1.19209e-05 6.34236 -6.34236 -3.59717 -4.4241 5.65748 -1.04308e-05 34.359 7.15256e-05 -31.2376 1.23797e-05 -16.2278 13.4653 2.98023e-06 -7.15256e-05 -40.5863 12.6689 16.7801 27.5989 1.19209e-05 4.76837e-05 -4.91706e-06 0 -29.7527 25.7636 2.38419e-05 2.38419e-05 -6.22028 0.0156676 2.34357 0.0062 0.0497 0.0339 0 0 0 0 0.0215 0 0 0 0 0 0.022 0 0 0 0 0 0.017 0 0 0 0 -0.0068 0.0873 0.0207 0 0 0 0 0.0267 0 0 0 0 0 0.0213 0 0 0 0 0 0.018 0 0 0 0 -0.0067 0.0922 0.0055 0 0 0 0 0.0266 0 0 0 0 0 0.0228 0 0 0 0 0 0.015 0 0 0 0 -0.0067 0.0925 -0.0113 0 0 0 0 0.0247 0 0 0 0 0 0.0221 0 0 0 0 0 0.018 0 0 0 0 -0.0066 0.0935 -0.0272 0 0 0 0 0.0163 0 0 0 0 0 0.0171 0 0 0 0 0 0.018 0 0 0 0 -1.04308e-05 34.359 7.15256e-05 37.6874 -3.84198e-06 11.3612 -19.1019 5.96046e-06 -0.000143051 42.2375 6.23535 -21.3363 -25.4977 -8.9407e-06 4.76837e-05 8.27482e-06 2.56132e-06 37.7509 -22.7244 0 4.76837e-05 3.68713 -0.0146375 -5.63224 -0.0062 0.0497 0.0339 0 0 0 0 0.0215 0 0 0 0 0 0.022 0 0 0 0 0 0.017 0 0 0 0 0.0068 0.0873 0.0207 0 0 0 0 0.0267 0 0 0 0 0 0.0213 0 0 0 0 0 0.018 0 0 0 0 0.0067 0.0922 0.0055 0 0 0 0 0.0266 0 0 0 0 0 0.0228 0 0 0 0 0 0.015 0 0 0 0 0.0067 0.0925 -0.0113 0 0 0 0 0.0247 0 0 0 0 0 0.0221 0 0 0 0 0 0.018 0 0 0 0 0.0066 0.0935 -0.0272 0 0 0 0 0.0163 0 0 0 0 0 0.0171 0 0 0 0 0 0.018 0 0 0 0 -1.04308e-05 34.359 7.15256e-05 13.6476 4.82925 -1.17101 -2.23517e-06 23.3356 0 1.04721e-05 -1.02453e-05 -6.4033e-07 
0.432951 -17.3296 -297.018 1.98158 -2.67732 -8.52187 5.65306 -5.68296 0.540066 0.201836 -0.51511 7.39454 -2.65427e-06 -42.4636 0 -2.05934 -2.08177 -0.074839 -2.70084e-06 -34.9577 2.38419e-05 -5.9876 -28.2433 -5.76759 -6.31235 -5.95835 2.09522 0.108485 -2.52793 7.34533 0 -43.9138 9.53674e-05 -0.327083 1.07126 0.00611505 -2.98023e-06 -33.4093 -2.38419e-05 -13.6048 -0.22927 -7.4651 5.96046e-06 6.30156 -6.30159 -3.46511 -4.2204 5.38492 -7.45058e-06 34.359 -2.38419e-05 -30.7766 1.02453e-05 -15.6047 13.76 5.96046e-06 2.38419e-05 -41.3745 12.3572 15.6976 27.5636 0 4.76837e-05 -5.49972e-08 3.41509e-06 -29.0731 25.7986 1.19209e-05 -4.76837e-05 -6.50356 0.00827166 2.88425 0.0062 0.0497 0.0339 0 0 0 0 0.0215 0 0 0 0 0 0.022 0 0 0 0 0 0.017 0 0 0 0 -0.0068 0.0873 0.0207 0 0 0 0 0.0267 0 0 0 0 0 0.0213 0 0 0 0 0 0.018 0 0 0 0 -0.0067 0.0922 0.0055 0 0 0 0 0.0266 0 0 0 0 0 0.0228 0 0 0 0 0 0.015 0 0 0 0 -0.0067 0.0925 -0.0113 0 0 0 0 0.0247 0 0 0 0 0 0.0221 0 0 0 0 0 0.018 0 0 0 0 -0.0066 0.0935 -0.0272 0 0 0 0 0.0163 0 0 0 0 0 0.0171 0 0 0 0 0 0.018 0 0 0 0 -7.45058e-06 34.359 -2.38419e-05 37.3076 -3.84198e-06 11.1665 -19.113 5.96046e-06 -7.15256e-05 42.6624 5.04408 -20.8505 -25.6884 5.96046e-06 7.15256e-05 5.56066e-06 2.56132e-06 37.2598 -22.7028 -5.96046e-06 -9.53674e-05 3.37215 -0.00882498 -5.9036 -0.0062 0.0497 0.0339 0 0 0 0 0.0215 0 0 0 0 0 0.022 0 0 0 0 0 0.017 0 0 0 0 0.0068 0.0873 0.0207 0 0 0 0 0.0267 0 0 0 0 0 0.0213 0 0 0 0 0 0.018 0 0 0 0 0.0067 0.0922 0.0055 0 0 0 0 0.0266 0 0 0 0 0 0.0228 0 0 0 0 0 0.015 0 0 0 0 0.0067 0.0925 -0.0113 0 0 0 0 0.0247 0 0 0 0 0 0.0221 0 0 0 0 0 0.018 0 0 0 0 0.0066 0.0935 -0.0272 0 0 0 0 0.0163 0 0 0 0 0 0.0171 0 0 0 0 0 0.018 0 0 0 0 -7.45058e-06 34.359 -2.38419e-05 13.7103 4.61544 -1.12464 -2.23517e-06 23.2075 0 8.9913e-06 -1.00318e-05 -6.4033e-07 
0.573374 -17.111 -296.912 1.93607 -2.89119 -8.95532 5.67845 -5.75603 0.494099 0.113737 -0.201285 7.81576 9.54606e-06 -42.5686 4.76837e-05 -2.0112 -2.19423 -0.0770335 0 -34.9767 -2.38419e-05 -5.6817 -28.7929 -5.52746 -6.33652 -6.01375 2.14419 0.0471871 -2.22481 7.76898 4.47035e-06 -43.9624 -4.76837e-05 -0.421469 1.10715 0.00814428 0 -33.4047 -4.76837e-05 -13.6709 -0.795879 -7.74284 -1.19209e-05 6.2791 -6.27916 -3.33571 -4.09971 5.16964 1.49012e-06 34.359 7.15256e-05 -31.4713 1.53679e-05 -15.2396 13.8797 -2.98023e-06 2.38419e-05 -40.8331 12.119 15.8303 27.5412 1.19209e-05 -2.38419e-05 9.47845e-07 1.70755e-06 -29.0343 25.7221 2.38419e-05 0 -6.82222 0.00205632 3.42026 0.0062 0.0497 0.0339 0 0 0 0 0.0215 0 0 0 0 0 0.022 0 0 0 0 0 0.017 0 0 0 0 -0.0068 0.0873 0.0207 0 0 0 0 0.0267 0 0 0 0 0 0.0213 0 0 0 0 0 0.018 0 0 0 0 -0.0067 0.0922 0.0055 0 0 0 0 0.0266 0 0 0 0 0 0.0228 0 0 0 0 0 0.015 0 0 0 0 -0.0067 0.0925 -0.0113 0 0 0 0 0.0247 0 0 0 0 0 0.0221 0 0 0 0 0 0.018 0 0 0 0 -0.0066 0.0935 -0.0272 0 0 0 0 0.0163 0 0 0 0 0 0.0171 0 0 0 0 0 0.018 0 0 0 0 1.49012e-06 34.359 7.15256e-05 37.1164 -6.83019e-06 10.9162 -19.2655 1.78814e-05 -4.76837e-05 42.9434 4.90038 -19.9192 -25.637 -2.98023e-06 0 -8.833e-07 2.98821e-06 36.4963 -22.6851 2.98023e-06 -4.76837e-05 3.11932 -0.00471526 -5.96671 -0.0062 0.0497 0.0339 0 0 0 0 0.0215 0 0 0 0 0 0.022 0 0 0 0 0 0.017 0 0 0 0 0.0068 0.0873 0.0207 0 0 0 0 0.0267 0 0 0 0 0 0.0213 0 0 0 0 0 0.018 0 0 0 0 0.0067 0.0922 0.0055 0 0 0 0 0.0266 0 0 0 0 0 0.0228 0 0 0 0 0 0.015 0 0 0 0 0.0067 0.0925 -0.0113 0 0 0 0 0.0247 0 0 0 0 0 0.0221 0 0 0 0 0 0.018 0 0 0 0 0.0066 0.0935 -0.0272 0 0 0 0 0.0163 0 0 0 0 0 0.0171 0 0 0 0 0 0.018 0 0 0 0 1.49012e-06 34.359 7.15256e-05 13.6566 4.60813 -1.1183 -2.98023e-06 23.1155 -2.38419e-05 1.06988e-05 -1.00318e-05 1.28066e-06 
0.699247 -16.8899 -296.81 1.80789 -3.06586 -8.71909 5.73094 -5.80841 0.554729 0.0747944 0.123888 7.2616 7.63685e-06 -42.7077 0 -1.91218 -2.24727 -0.0750079 1.39698e-07 -35.0117 -4.76837e-05 -5.34831 -29.2656 -5.2485 -6.36926 -6.08287 2.09608 0.00683701 -2.01645 7.20998 1.49012e-06 -43.9626 -4.76837e-05 -0.321672 1.21382 0.00681582 -2.98023e-06 -33.4514 0 -13.7727 -0.66981 -7.86225 -5.96046e-06 6.2563 -6.25625 -3.19828 -3.91192 4.93596 0 34.359 -2.38419e-05 -31.4473 1.302e-05 -14.7042 14.1299 -2.98023e-06 -2.38419e-05 -41.0726 11.83 15.0857 27.4933 -5.96046e-06 -4.76837e-05 1.05687e-05 5.12264e-06 -28.5808 25.5408 1.19209e-05 0 -7.14128 -0.00381875 3.97052 0.0062 0.0497 0.0339 0 0 0 0 0.0215 0 0 0 0 0 0.022 0 0 0 0 0 0.017 0 0 0 0 -0.0068 0.0873 0.0207 0 0 0 0 0.0267 0 0 0 0 0 0.0213 0 0 0 0 0 0.018 0 0 0 0 -0.0067 0.0922 0.0055 0 0 0 0 0.0266 0 0 0 0 0 0.0228 0 0 0 0 0 0.015 0 0 0 0 -0.0067 0.0925 -0.0113 0 0 0 0 0.0247 0 0 0 0 0 0.0221 0 0 0 0 0 0.018 0 0 0 0 -0.0066 0.0935 -0.0272 0 0 0 0 0.0163 0 0 0 0 0 0.0171 0 0 0 0 0 0.018 0 0 0 0 0 34.359 -2.38419e-05 36.9396 -3.41509e-06 10.721 -19.2799 0 0 43.1972 4.33245 -19.4918 -25.7236 1.49012e-06 2.38419e-05 -9.63344e-07 3.84198e-06 36.2373 -22.7649 -5.96046e-06 2.38419e-05 3.00419 -0.00326394 -5.96564 -0.0062 0.0497 0.0339 0 0 0 0 0.0215 0 0 0 0 0 0.022 0 0 0 0 0 0.017 0 0 0 0 0.0068 0.0873 0.0207 0 0 0 0 0.0267 0 0 0 0 0 0.0213 0 0 0 0 0 0.018 0 0 0 0 0.0067 0.0922 0.0055 0 0 0 0 0.0266 0 0 0 0 0 0.0228 0 0 0 0 0 0.015 0 0 0 0 0.0067 0.0925 -0.0113 0 0 0 0 0.0247 0 0 0 0 0 0.0221 0 0 0 0 0 0.018 0 0 0 0 0.0066 0.0935 -0.0272 0 0 0 0 0.0163 0 0 0 0 0 0.0171 0 0 0 0 0 0.018 0 0 0 0 0 34.359 -2.38419e-05 13.5541 4.37985 -1.05474 -2.23517e-06 22.9817 0 1.10057e-05 -9.39151e-06 -2.13443e-07 
